# xmcd CD database file
#
# Track frame offsets:
#	150
#	38806
#	66666
#	95963
#	119053
#	151799
#	194086
#	225680
#	252374
#	271178
#	289782
#	309835
#	339246
#
# Disc length: 4711 seconds
#
# Revision: 0
# Processed by: cddbd v1.5.2PL0 Copyright (c) Steve Scherf et al.
# Submitted via: CDex 1.97
#
DISCID=c212650d
DTITLE=Various Artist - Boccaccio Life - The End Of An Era [CD3)
DYEAR=2018
DGENRE=New Beat
TTITLE0=Dave Swayze - Last Flight To Paris (Original Mix)
TTITLE1=Gorgon City Ft. Katy Menditta - Imagination (Weiss Remix)
TTITLE2=Robert Miles - Red Zone Part 1
TTITLE3=PCP - The Club (Original Mix)
TTITLE4=Driver's Seed - You Don't Really Matter (Vocal Mix)
TTITLE5=Urban Electro Squad - Ex Girlfriends (Mr. Sam Sunset Remix)
TTITLE6=Viframa - Cristalle (Katana Ft. Dj Precision Remix)
TTITLE7=Dj Iron D - Apollo
TTITLE8=Balmoral Trax - Into The Night (Club Mix)
TTITLE9=Mackenzie Ft. Jessy - Arpegia (Without You)
TTITLE10=Quakerman - Schlam Me (Work Mix)
TTITLE11=Tony Di Bart - The Real Thing (Dance Remix)
TTITLE12=2black - Waves Of Luv (Disco Boys Vocal Mix)
EXTD=YEAR: 2018
EXTT0=
EXTT1=
EXTT2=
EXTT3=
EXTT4=
EXTT5=
EXTT6=
EXTT7=
EXTT8=
EXTT9=
EXTT10=
EXTT11=
EXTT12=
PLAYORDER=
